Coordinates
version=1
nRows=13
nColumns=40
inDegrees=yes

Units are S.I. units (second, meters, Newtons, ...)
Angles are in degrees.

endheader
time	pelvis_tilt	pelvis_list	pelvis_rotation	pelvis_tx	pelvis_ty	pelvis_tz	hip_flexion_r	hip_adduction_r	hip_rotation_r	knee_angle_r	knee_angle_r_beta	ankle_angle_r	subtalar_angle_r	mtp_angle_r	hip_flexion_l	hip_adduction_l	hip_rotation_l	knee_angle_l	knee_angle_l_beta	ankle_angle_l	subtalar_angle_l	mtp_angle_l	lumbar_extension	lumbar_bending	lumbar_rotation	arm_flex_r	arm_add_r	arm_rot_r	elbow_flex_r	pro_sup_r	wrist_flex_r	wrist_dev_r	arm_flex_l	arm_add_l	arm_rot_l	elbow_flex_l	pro_sup_l	wrist_flex_l	wrist_dev_l
     27.95000000	     -3.25258441	     -4.21124221	     -0.85819216	      1.10743663	      0.93773833	      0.41704530	     29.41687120	     -6.18915206	     -6.26238039	     63.41550947	     63.41550947	      1.64588999	    -12.73233454	     -1.86930896	     11.41904499	     -3.39454437	    -12.18665552	     17.73907631	     17.73907631	     12.26032856	     -7.99026785	     -2.53763389	     -8.93183670	      6.76111539	      1.70057359	      4.02636199	    -13.02170696	    -12.22330119	     55.58085281	     44.79114086	      0.00000000	      0.00000000	     18.36195400	    -13.35980496	      7.22183452	     32.47034728	     44.84725216	      0.00000000	      0.00000000
     27.96114286	     -3.29145316	     -4.09786991	     -1.01342937	      1.10599994	      0.93761495	      0.41642154	     30.40710288	     -6.24898160	     -6.33093945	     61.48302335	     61.48302335	      1.74391748	    -12.28272226	     -1.97259680	     10.61894845	     -3.17248127	    -12.36809307	     17.24603057	     17.24603057	     12.58929642	     -7.80353845	     -2.69905284	     -9.01099999	      6.70298073	      2.20734483	      2.14354288	    -13.16069351	    -12.32201535	     52.39518617	     44.91629264	      0.00000000	      0.00000000	     20.62109360	    -13.47482428	      7.14170555	     33.33341996	     44.91481377	      0.00000000	      0.00000000
     27.97228571	     -3.36926860	     -4.03621735	     -1.11544937	      1.10455366	      0.93739847	      0.41588252	     31.25938516	     -6.17751102	     -6.40206073	     59.26880160	     59.26880160	      1.60053557	    -12.07040886	     -2.25955478	      9.92994849	     -3.03598512	    -12.57528043	     16.84210663	     16.84210663	     12.79227086	     -7.53812088	     -3.13487351	     -8.96535682	      6.68087759	      1.84063951	      2.11025038	    -12.57047312	    -13.44242392	     45.84238412	     45.24371931	      0.00000000	      0.00000000	     22.42529667	    -14.11747255	      7.29646434	     33.99313606	     44.98653387	      0.00000000	      0.00000000
     27.98342857	     -3.34194104	     -4.03585780	     -1.22029091	      1.10326053	      0.93725540	      0.41535985	     31.83163473	     -6.02988463	     -6.52578548	     56.82612252	     56.82612252	      1.58945443	    -11.66867882	     -1.94817792	      9.09841982	     -2.93700738	    -12.65035415	     16.40481227	     16.40481227	     13.16762223	     -7.34042701	     -3.24967823	     -9.16021244	      6.77630200	      2.07070884	      0.29008162	    -12.60578696	    -13.54150934	     43.69998011	     45.32593083	      0.00000000	      0.00000000	     24.27661014	    -14.41970550	      7.11580335	     35.28575076	     45.05127758	      0.00000000	      0.00000000
     27.99457143	     -3.35856346	     -3.94042433	     -1.36084194	      1.10200179	      0.93694837	      0.41498952	     32.37127797	     -5.91350193	     -6.53820942	     54.24150690	     54.24150690	      1.63160303	    -11.18996385	     -1.36015818	      8.34520143	     -2.78166842	    -12.96664990	     16.01602476	     16.01602476	     13.43045386	     -6.95851875	     -3.67432845	     -9.21063916	      6.68966549	      1.68216979	      0.89587477	    -12.12006971	    -15.13698647	     36.28324602	     45.73387538	      0.00000000	      0.00000000	     25.49573409	    -15.27642565	      7.10016154	     37.30373776	     45.15123876	      0.00000000	      0.00000000
     28.00571429	     -3.36978123	     -3.93648604	     -1.45255054	      1.10087232	      0.93662873	      0.41460108	     32.70199138	     -5.74151181	     -6.73881432	     51.33605452	     51.33605452	      1.55031545	    -10.62935778	     -0.88020192	      7.55664818	     -2.68398578	    -13.06923646	     15.56807174	     15.56807174	     13.76900428	     -6.74213005	     -3.75666102	     -9.35190700	      6.79792046	      1.88185741	     -0.84959419	    -12.19451854	    -15.33269022	     34.59287058	     45.80664412	      0.00000000	      0.00000000	     27.11889586	    -15.52751490	      6.86450585	     38.61448074	     45.21723610	      0.00000000	      0.00000000
     28.01685714	     -3.41479676	     -3.84308207	     -1.60673895	      1.09979416	      0.93610622	      0.41446272	     33.02908269	     -5.58218365	     -6.83688385	     48.33112364	     48.33112364	      1.50746865	     -9.99651268	     -0.25821496	      6.84012482	     -2.55704530	    -13.45799534	     15.20729932	     15.20729932	     14.09795613	     -6.19903182	     -4.16193965	     -9.41784952	      6.71790882	      1.52237887	     -0.50217099	    -11.87470252	    -17.36028002	     28.44937306	     46.23097605	      0.00000000	      0.00000000	     27.87339376	    -16.46995486	      6.40498288	     41.49282310	     45.37308917	      0.00000000	      0.00000000
     28.02800000	     -3.44716884	     -3.78324374	     -1.73486130	      1.09884379	      0.93559539	      0.41432967	     33.15611661	     -5.40611690	     -7.09595286	     45.01812593	     45.01812593	      1.35238151	     -9.23296791	      0.20465836	      6.05108514	     -2.40979609	    -13.62196850	     14.72899018	     14.72899018	     14.41811210	     -5.94065169	     -4.23103509	     -9.54601985	      6.73149264	      1.82054544	     -2.26653781	    -11.96114241	    -17.71210868	     27.04045143	     46.31120743	      0.00000000	      0.00000000	     29.35572775	    -16.68556366	      6.07215678	     42.95256205	     45.45004962	      0.00000000	      0.00000000
     28.03914286	     -3.52121679	     -3.72147265	     -1.86131541	      1.09798973	      0.93494909	      0.41428722	     33.19034394	     -5.21389270	     -7.45624500	     41.48247718	     41.48247718	      1.12926745	     -8.35451946	      0.64374794	      5.31484527	     -2.28229327	    -13.85144447	     14.28442865	     14.28442865	     14.74870300	     -5.56446726	     -4.38784458	     -9.60124032	      6.75389651	      2.05695924	     -3.88604688	    -12.05035511	    -18.08690142	     25.47461296	     46.40482384	      0.00000000	      0.00000000	     30.59684368	    -16.90402001	      5.72554855	     44.63430602	     45.52446437	      0.00000000	      0.00000000
     28.05028571	     -3.65010445	     -3.65495078	     -1.98343273	      1.09725212	      0.93416911	      0.41445208	     33.13043479	     -4.98415742	     -7.92377300	     37.74020428	     37.74020428	      0.86356207	     -7.36205028	      1.09745413	      4.62523311	     -2.16504532	    -14.10544007	     13.83089042	     13.83089042	     15.06663100	     -5.14041009	     -4.56292232	     -9.57654870	      6.73174717	      2.22724077	     -5.46026180	    -12.11798663	    -18.44433398	     24.00770310	     46.49580356	      0.00000000	      0.00000000	     31.66163015	    -17.19363967	      5.35100913	     46.43347310	     45.59770864	      0.00000000	      0.00000000
     28.06142857	     -3.73872529	     -3.51035882	     -2.16235766	      1.09670282	      0.93320578	      0.41479030	     32.91948538	     -4.77439992	     -8.43621898	     33.87357009	     33.87357009	      0.28262953	     -6.35323474	      0.53562411	      3.89700011	     -2.02976211	    -14.76124064	     13.45426085	     13.45426085	     15.48100097	     -4.14347309	     -5.00578157	     -9.65192254	      6.56998232	      1.59265224	     -5.53745046	    -11.99743417	    -20.72541749	     20.55799137	     46.93313897	      0.00000000	      0.00000000	     30.96325188	    -18.46325095	      3.96522440	     51.87598952	     45.84102700	      0.00000000	      0.00000000
     28.07257143	     -3.91954124	     -3.39774665	     -2.29471449	      1.09630415	      0.93211497	      0.41516763	     32.65504950	     -4.49435079	     -9.08104163	     29.93476575	     29.93476575	      0.02581596	     -5.12943043	      1.25929256	      3.22427799	     -1.84740099	    -14.91815246	     12.96872808	     12.96872808	     15.79735423	     -3.87377434	     -5.09614199	     -9.50634493	      6.52510030	      1.77290463	     -7.21584920	    -12.08613567	    -21.01517167	     19.71072049	     46.99618670	      0.00000000	      0.00000000	     31.98091075	    -18.64914618	      3.61875961	     53.15720381	     45.90426598	      0.00000000	      0.00000000
     28.08371429	     -4.13906315	     -3.15830794	     -2.46336692	      1.09601585	      0.93076663	      0.41582625	     32.38676333	     -4.26376865	     -9.69855982	     26.11299091	     26.11299091	     -0.19470101	     -3.84702609	      2.07165580	      2.59426465	     -1.55464951	    -15.16896124	     12.50376940	     12.50376940	     16.10430215	     -3.53138446	     -5.24840211	     -9.29843969	      6.21968330	      1.97398592	     -8.80191633	    -12.02809021	    -21.24003372	     18.99277230	     47.04446221	      0.00000000	      0.00000000	     32.92793004	    -18.87724002	      3.27178876	     54.63963051	     45.96635685	      0.00000000	      0.00000000
